<?xml version="1.0" encoding="UTF-8"?>
<svg width="344px" height="64px" viewBox="0 0 344 64" version="1.1" xmlns="http://www.w3.org/2000/svg" xmlns:xlink="http://www.w3.org/1999/xlink">
    <title>MIMOS</title>
    <g id="page-1" stroke="none" stroke-width="1" fill="none" fill-rule="evenodd">
        <path d="M112,0 L112,64 L96,64 L96,24.33 L66,64 L48,64 L96,0 L112,0 Z M66,0 L18,64 L0,64 L48,0 L66,0 Z M295.576993,21.4082838 C305.203187,21.4082838 312.930336,28.9389795 312.930336,38.6961419 C312.930336,48.4533042 305.203187,55.984 295.576993,55.984 C285.950799,55.984 278.289135,48.4533042 278.289135,38.6961419 C278.289135,28.9389795 285.950799,21.4082838 295.576993,21.4082838 Z M330.578357,21.4082838 C335.882587,21.4082838 340.466488,23.8312033 343.020377,28.3496207 L343.020377,28.3496207 L335.817102,32.2786794 C334.834838,30.1831814 333.001277,28.9389795 330.578357,28.9389795 C328.482859,28.9389795 326.780267,29.8557599 326.780267,31.6238363 C326.780267,36.4696753 343.67522,33.457397 343.67522,45.5065102 C343.67522,52.5788158 337.519694,55.984 330.512873,55.984 C323.964442,55.984 319.118603,53.2336589 316.761168,48.191367 L316.761168,48.191367 L324.095411,44.0658554 C325.012191,46.7507121 327.238658,48.3223356 330.512873,48.3223356 C333.19773,48.3223356 335.031291,47.4055553 335.031291,45.5065102 C335.031291,40.7261555 318.136338,43.345528 318.136338,31.8202892 C318.136338,25.1408895 323.833473,21.4082838 330.578357,21.4082838 Z M161.890772,9.22820191 L175.053119,30.9035089 L188.149981,9.22820191 L197.448753,9.22820191 L197.448753,55.0672196 L188.477402,55.0672196 L188.477402,25.3373424 L175.576993,46.6197435 L174.529244,46.6197435 L161.628835,25.4028267 L161.628835,55.0672196 L152.592,55.0672196 L152.592,9.22820191 L161.890772,9.22820191 Z M214.834838,22.3250641 L214.834838,55.0672196 L206.387362,55.0672196 L206.387362,22.3250641 L214.834838,22.3250641 Z M259.593364,21.4082838 C267.058576,21.4082838 271.969899,26.712513 271.969899,34.8980518 L271.969899,34.8980518 L271.969899,55.0672196 L263.522423,55.0672196 L263.522423,35.4874106 C263.522423,31.6238363 261.557894,29.2664011 258.021741,29.2664011 C254.289135,29.2664011 251.9317,31.7548049 251.9317,36.6661282 L251.9317,36.6661282 L251.9317,55.0672196 L243.484224,55.0672196 L243.484224,35.4874106 C243.484224,31.6238363 241.519694,29.2664011 237.983542,29.2664011 C234.381905,29.2664011 231.828016,31.7548049 231.828016,36.6661282 L231.828016,36.6661282 L231.828016,55.0672196 L223.38054,55.0672196 L223.38054,22.3250641 L231.828016,22.3250641 L231.828016,25.7957326 C233.661577,23.0453915 236.73934,21.4082838 240.930336,21.4082838 C244.990363,21.4082838 248.002641,23.1108759 249.836202,26.1231542 C251.866216,23.1763602 255.140431,21.4082838 259.593364,21.4082838 Z M295.576993,29.659307 C290.600186,29.659307 286.736611,33.3919127 286.736611,38.6961419 C286.736611,44.0003711 290.600186,47.7329768 295.576993,47.7329768 C300.619285,47.7329768 304.482859,44.0003711 304.482859,38.6961419 C304.482859,33.3919127 300.619285,29.659307 295.576993,29.659307 Z M210.578357,7.984 C213.459667,7.984 215.817102,10.4069195 215.817102,13.2227449 C215.817102,16.0385703 213.459667,18.3960055 210.578357,18.3960055 C207.762532,18.3960055 205.405097,16.0385703 205.405097,13.2227449 C205.405097,10.4069195 207.762532,7.984 210.578357,7.984 Z" id="share" fill="#ffffff"></path>
    </g>
</svg>
